<?xml version="1.0" standalone="no"?>
<!DOCTYPE svg PUBLIC "-//W3C//DTD SVG 20010904//EN"
 "http://www.w3.org/TR/2001/REC-SVG-20010904/DTD/svg10.dtd">
<svg version="1.0" xmlns="http://www.w3.org/2000/svg"
 width="512.000000pt" height="512.000000pt" viewBox="0 0 512.000000 512.000000"
 preserveAspectRatio="xMidYMid meet">

<g transform="translate(0.000000,512.000000) scale(0.100000,-0.100000)"
fill="#fff" stroke="none">
<path d="M1326 3994 c-335 -72 -608 -329 -713 -670 -25 -83 -27 -102 -27 -264
0 -162 2 -182 27 -263 47 -152 121 -281 220 -384 22 -24 39 -45 36 -47 -2 -2
-58 -31 -124 -64 -348 -175 -606 -455 -687 -747 -21 -76 -22 -103 -26 -527
l-3 -448 440 0 441 0 0 80 0 80 -355 0 -355 0 0 348 c0 429 7 464 118 637 161
252 446 445 810 550 56 17 102 32 102 35 0 3 -41 32 -91 65 -163 106 -250 201
-320 350 -58 123 -73 191 -73 335 0 99 5 141 22 203 78 276 282 480 559 559
111 32 295 32 407 0 160 -46 314 -148 411 -271 27 -34 54 -60 60 -57 22 8 125
77 125 83 0 12 -54 78 -119 147 -134 139 -299 230 -494 271 -88 19 -300 18
-391 -1z"/>
<path d="M3385 3995 c-123 -28 -246 -81 -344 -147 -96 -66 -271 -253 -257
-276 3 -5 33 -26 67 -47 l62 -38 19 24 c134 169 263 259 445 311 111 32 295
32 407 0 224 -64 402 -213 501 -417 60 -125 79 -205 79 -345 0 -139 -19 -220
-79 -345 -70 -146 -165 -246 -343 -360 -61 -39 -75 -55 -49 -55 7 0 74 -20
150 -44 422 -137 718 -388 840 -713 20 -55 21 -79 25 -431 l3 -372 -355 0
-356 0 0 -80 0 -80 441 0 441 0 -5 448 c-5 504 -5 507 -82 670 -60 125 -119
208 -235 322 -110 110 -274 225 -423 295 -53 25 -97 50 -97 54 0 4 16 23 36
42 54 51 146 195 184 284 94 227 93 513 -3 735 -58 133 -97 190 -207 300 -133
133 -241 198 -420 253 -85 25 -354 33 -445 12z"/>
<path d="M2391 3389 c-286 -37 -552 -230 -682 -494 -72 -145 -92 -230 -92
-395 -1 -204 41 -349 147 -508 47 -70 155 -183 219 -229 38 -27 47 -43 25 -43
-7 0 -61 -20 -119 -44 -333 -135 -635 -391 -764 -646 -71 -141 -69 -121 -73
-597 l-3 -433 1465 0 1466 0 0 413 c0 376 -2 421 -19 489 -85 330 -433 657
-863 809 -38 13 -68 27 -68 30 0 3 27 28 60 54 141 113 251 285 301 470 30
109 32 337 5 439 -99 371 -399 639 -766 685 -95 12 -146 12 -239 0z m314 -183
c33 -9 98 -36 145 -58 69 -34 102 -59 175 -133 151 -150 213 -288 222 -490 7
-156 -24 -279 -104 -417 -60 -104 -134 -171 -330 -302 -208 -140 -203 -123
-53 -166 261 -77 335 -103 445 -157 141 -70 251 -149 361 -258 112 -111 181
-213 222 -327 26 -72 26 -77 30 -400 l4 -328 -1302 0 -1301 0 3 337 3 338 27
63 c41 95 109 191 202 284 183 183 392 301 739 417 115 38 210 71 212 73 2 2
-74 53 -168 113 -241 154 -333 251 -404 425 -79 196 -70 398 27 595 99 203
267 339 489 395 92 24 262 21 356 -4z"/>
</g>
</svg>
