<?xml version="1.0" standalone="no"?>
<!DOCTYPE svg PUBLIC "-//W3C//DTD SVG 20010904//EN"
 "http://www.w3.org/TR/2001/REC-SVG-20010904/DTD/svg10.dtd">
<svg version="1.0" xmlns="http://www.w3.org/2000/svg"
 width="225.000000pt" height="225.000000pt" viewBox="0 0 225.000000 225.000000"
 preserveAspectRatio="xMidYMid meet">

<g transform="translate(0.000000,225.000000) scale(0.100000,-0.100000)"
fill="#fff" stroke="none">
<path d="M920 2099 c-337 -52 -627 -296 -730 -615 -156 -487 96 -992 576
-1153 391 -131 823 19 1050 365 242 369 189 845 -129 1156 -160 156 -368 244
-597 253 -58 2 -134 -1 -170 -6z m331 -154 c246 -67 443 -247 529 -485 148
-403 -61 -848 -465 -993 -371 -132 -781 34 -954 386 -147 301 -89 650 148 888
114 114 260 191 412 218 72 13 261 5 330 -14z"/>
<path d="M1013 1680 c-129 -27 -239 -145 -251 -271 l-5 -49 66 0 65 0 11 47
c21 80 103 143 190 143 38 0 109 -39 135 -74 35 -45 49 -107 36 -156 -15 -55
-52 -95 -115 -125 -98 -46 -155 -112 -155 -180 0 -24 2 -25 63 -25 57 0 65 3
74 23 6 12 38 36 75 55 80 40 144 102 175 170 22 46 25 64 21 135 -4 96 -28
154 -90 217 -71 74 -193 111 -295 90z"/>
<path d="M990 770 l0 -70 65 0 65 0 0 70 0 70 -65 0 -65 0 0 -70z"/>
</g>
</svg>
