<?xml version="1.0" standalone="no"?>
<!DOCTYPE svg PUBLIC "-//W3C//DTD SVG 20010904//EN"
 "http://www.w3.org/TR/2001/REC-SVG-20010904/DTD/svg10.dtd">
<svg version="1.0" xmlns="http://www.w3.org/2000/svg"
 width="640.000000pt" height="640.000000pt" viewBox="0 0 640.000000 640.000000"
 preserveAspectRatio="xMidYMid meet">

<g transform="translate(0.000000,640.000000) scale(0.100000,-0.100000)"
fill="#fff" stroke="none">
<path d="M2645 5583 c-63 -14 -84 -26 -94 -51 -11 -25 -4 -45 64 -197 117
-262 117 -262 170 -379 l50 -109 55 -19 c92 -32 196 -48 313 -48 129 0 204 10
301 41 l68 22 30 66 c295 653 284 621 215 658 -29 17 -78 18 -592 19 -308 1
-569 0 -580 -3z"/>
<path d="M2133 4953 c-24 -5 -27 -18 -17 -72 l6 -31 87 6 c139 10 304 -19 443
-78 26 -11 46 -24 43 -28 -2 -4 -29 -8 -60 -9 -98 -3 -219 -32 -330 -78 -80
-33 -225 -121 -225 -136 0 -7 13 -27 28 -45 l28 -34 54 38 c72 48 184 100 279
127 63 18 102 21 231 22 86 0 184 -6 220 -13 153 -30 492 -25 623 9 21 6 94
10 161 10 191 -1 353 -50 509 -153 32 -21 60 -38 61 -38 6 0 59 80 55 84 -59
47 -224 133 -304 159 -74 24 -187 46 -251 49 -30 1 -57 6 -60 9 -6 10 139 65
224 86 45 11 113 17 208 17 l142 1 6 44 c3 24 3 47 0 50 -3 3 -74 6 -157 6
-178 0 -233 -13 -417 -95 -252 -113 -300 -125 -515 -124 -189 1 -254 13 -408
78 -45 19 -125 52 -177 74 -125 53 -223 72 -357 71 -59 -1 -118 -4 -130 -6z"/>
<path d="M2624 4512 c-729 -540 -1075 -1063 -1145 -1731 -15 -145 -6 -508 16
-651 103 -670 508 -1120 1147 -1275 184 -45 315 -58 558 -59 372 -1 643 53
904 179 158 76 254 144 382 270 248 244 384 543 436 955 19 154 17 537 -4 675
-99 643 -415 1102 -1126 1634 -139 104 -119 99 -284 65 -191 -39 -415 -39
-605 0 -164 33 -145 38 -279 -62z m733 -937 c207 -34 392 -130 537 -280 199
-207 299 -495 266 -773 -29 -237 -128 -433 -303 -598 -128 -120 -278 -200
-452 -240 -121 -28 -310 -24 -437 9 -156 41 -321 132 -436 241 -97 91 -208
275 -251 416 -120 396 45 854 387 1075 217 140 446 189 689 150z"/>
<path d="M3157 3243 c-4 -3 -7 -16 -7 -28 0 -18 -10 -25 -59 -38 -82 -23 -139
-69 -176 -142 -26 -52 -30 -71 -29 -140 0 -61 5 -89 21 -121 31 -59 90 -107
171 -140 l72 -29 0 -167 c0 -119 -3 -168 -11 -168 -7 0 -31 19 -54 43 -36 35
-45 53 -55 105 -7 34 -13 62 -14 62 -15 0 -149 -30 -153 -34 -10 -10 16 -116
39 -163 13 -25 42 -62 65 -83 39 -34 122 -70 164 -70 15 0 19 -10 21 -62 l3
-63 52 -3 52 -3 3 62 3 62 53 13 c62 16 131 60 167 107 50 67 73 174 55 260
-22 109 -100 188 -220 221 l-60 17 0 150 c0 122 3 149 14 149 24 0 74 -70 81
-112 6 -34 10 -39 29 -35 11 3 47 9 79 12 56 7 57 8 57 39 0 66 -73 177 -140
211 -15 8 -48 19 -73 26 -42 10 -47 14 -47 40 0 28 -2 29 -48 29 -27 0 -52 -3
-55 -7z m-7 -338 l0 -136 -32 17 c-17 9 -40 26 -50 38 -42 51 -31 145 23 190
56 47 59 41 59 -109z m162 -347 c22 -13 46 -35 54 -50 21 -40 18 -127 -6 -166
-18 -29 -73 -72 -92 -72 -5 0 -8 70 -8 155 0 85 3 155 6 155 4 0 24 -10 46
-22z"/>
</g>
</svg>
