<?xml version="1.0" standalone="no"?>
<!DOCTYPE svg PUBLIC "-//W3C//DTD SVG 20010904//EN"
 "http://www.w3.org/TR/2001/REC-SVG-20010904/DTD/svg10.dtd">
<svg version="1.0" xmlns="http://www.w3.org/2000/svg"
 width="860.000000pt" height="899.000000pt" viewBox="0 0 860.000000 899.000000"
 preserveAspectRatio="xMidYMid meet">

<g transform="translate(0.000000,899.000000) scale(0.100000,-0.100000)"
fill="#fff" stroke="none">
<path d="M4100 8579 c-457 -21 -929 -122 -1342 -287 -772 -309 -1440 -892
-1902 -1662 -461 -766 -642 -1673 -515 -2590 64 -464 189 -868 394 -1275 393
-779 1010 -1383 1801 -1761 463 -222 908 -340 1439 -384 167 -13 564 -13 725
0 549 47 1124 233 1622 526 259 152 342 245 341 383 0 93 -19 140 -77 197 -40
39 -65 54 -112 67 -109 31 -176 17 -290 -60 -429 -289 -919 -476 -1444 -550
-194 -27 -640 -24 -863 5 -707 93 -1283 345 -1797 787 -600 516 -992 1170
-1140 1905 -54 266 -64 378 -65 700 0 311 8 410 51 650 88 484 283 939 591
1377 547 780 1428 1294 2413 1409 287 33 735 8 1069 -61 631 -129 1260 -465
1707 -913 600 -601 910 -1256 1006 -2122 16 -149 16 -555 0 -690 -74 -612
-295 -1180 -647 -1665 -104 -144 -119 -176 -119 -260 0 -82 23 -141 81 -200
55 -57 114 -80 203 -80 64 0 82 4 121 27 64 38 124 107 225 261 391 594 582
1066 673 1667 65 428 52 950 -35 1380 -116 578 -342 1109 -664 1560 -396 554
-953 1018 -1555 1294 -589 270 -1238 395 -1895 365z"/>
<path d="M3862 6645 c-393 -197 -1119 -576 -1300 -677 l-52 -30 332 -210
c1007 -636 1445 -908 1464 -908 9 0 99 44 202 99 103 54 331 171 507 261 531
270 1047 540 1067 559 4 3 -95 66 -220 138 -125 72 -443 260 -707 418 -640
382 -901 535 -914 535 -6 0 -177 -83 -379 -185z"/>
<path d="M2270 4548 l0 -1074 262 -164 c411 -256 1541 -933 1566 -938 l22 -4
0 1074 0 1074 -217 134 c-558 342 -1575 950 -1615 965 -17 7 -18 -48 -18
-1067z"/>
<path d="M5980 5294 c-162 -84 -562 -290 -887 -456 l-592 -303 -1 -1077 c0
-728 3 -1078 10 -1078 30 0 1300 649 1650 843 l135 75 3 904 c3 857 -2 1249
-17 1247 -3 0 -139 -70 -301 -155z"/>
</g>
</svg>
